<?xml version="1.0" standalone="no"?>
<!DOCTYPE svg PUBLIC "-//W3C//DTD SVG 20010904//EN"
 "http://www.w3.org/TR/2001/REC-SVG-20010904/DTD/svg10.dtd">
<svg version="1.0" xmlns="http://www.w3.org/2000/svg"
 width="1711.000000pt" height="1376.000000pt" viewBox="0 0 1711.000000 1376.000000"
 preserveAspectRatio="xMidYMid meet">

<g transform="translate(0.000000,1376.000000) scale(0.100000,-0.100000)"
fill="#000000" stroke="none">
<path d="M10170 13670 c-513 -25 -834 -114 -999 -279 -234 -234 -465 -841
-741 -1941 -98 -394 -212 -899 -285 -1265 -27 -132 -51 -243 -54 -247 -4 -4
-1323 125 -2931 287 -1608 162 -2925 294 -2926 292 -1 -1 -13 -109 -26 -239
l-24 -237 63 -7 c62 -6 62 -6 56 -35 -3 -18 -1 -29 6 -29 6 0 228 -29 493 -65
1623 -216 3234 -395 4838 -535 195 -17 356 -32 357 -33 1 -1 -34 -45 -78 -97
-360 -426 -571 -1014 -630 -1755 -12 -157 -6 -712 10 -850 4 -38 6 -72 4 -74
-13 -16 -2257 190 -3583 330 -1022 107 -3058 343 -3322 385 -30 4 -37 2 -42
-14 -6 -18 -10 -19 -64 -6 -31 7 -60 10 -63 6 -19 -20 -124 -614 -158 -897
-106 -874 -91 -1648 49 -2589 153 -1021 289 -1538 530 -2011 380 -747 968
-1236 1770 -1473 604 -178 1273 -244 2775 -272 1929 -36 2610 -17 3370 91
1239 176 2166 600 2994 1368 162 151 467 486 553 609 l16 24 108 -88 c197
-160 432 -302 673 -409 269 -119 662 -226 780 -212 57 7 325 93 472 152 711
286 1303 803 1720 1502 340 572 581 1303 669 2033 24 205 23 201 84 395 127
403 216 826 262 1255 21 194 24 653 5 820 -50 445 -157 790 -342 1103 l-72
120 96 356 c269 996 388 1603 452 2301 9 96 27 292 42 435 32 325 36 557 10
667 -48 204 -117 304 -286 413 -396 256 -1474 451 -3271 590 -422 32 -1342 91
-1635 105 -552 25 -1409 35 -1725 20z m1945 -690 c165 -16 352 -39 415 -50
500 -91 859 -391 984 -823 93 -322 68 -753 -64 -1092 -153 -391 -448 -638
-872 -732 -133 -29 -459 -23 -815 14 -156 16 -286 33 -290 36 -6 6 236 2533
254 2650 l6 38 41 -6 c22 -3 176 -19 341 -35z m440 -3984 l3420 -345 33 -38
c103 -117 229 -347 295 -539 171 -492 174 -1205 11 -1926 l-15 -67 -112 4
c-62 3 -294 10 -517 15 -1920 49 -4330 165 -6435 310 -619 43 -1385 100 -1420
105 -29 5 -30 7 -30 57 0 29 -7 145 -14 257 -16 237 -10 586 14 786 66 557
234 995 507 1321 191 227 365 318 733 383 61 11 110 20 110 20 0 1 1539 -154
3420 -343z m-9980 -2466 c2759 -311 5953 -581 8553 -721 194 -11 222 -14 218
-28 -13 -44 -68 -335 -90 -481 -77 -503 -86 -991 -25 -1415 74 -514 250 -972
512 -1336 l55 -77 -80 -103 c-423 -545 -961 -990 -1559 -1290 -395 -198 -875
-353 -1370 -444 -683 -126 -1360 -160 -2799 -144 -1864 21 -2536 62 -3145 190
-726 152 -1223 467 -1594 1009 -71 103 -166 269 -158 276 3 3 52 -1 109 -8
139 -18 735 -18 878 0 877 108 1601 408 2257 934 67 54 157 131 200 172 l78
74 -129 133 c-71 74 -146 152 -167 173 l-38 39 -73 -68 c-379 -352 -909 -658
-1418 -819 -156 -49 -327 -91 -500 -120 -252 -44 -349 -51 -660 -50 -300 0
-431 10 -659 51 -112 20 -101 3 -166 256 -145 565 -315 1748 -315 2194 l0 53
172 -7 c274 -9 486 19 702 94 182 63 308 140 439 270 207 205 314 469 333 823
6 104 -9 371 -23 406 -3 8 1 14 8 14 8 0 212 -22 454 -50z"/>
<path d="M12264 12526 c-175 -40 -279 -156 -304 -339 -19 -136 13 -234 104
-314 61 -54 132 -90 331 -168 314 -124 425 -194 510 -322 83 -123 113 -297 82
-468 -8 -44 -13 -82 -12 -83 7 -8 95 115 132 186 137 257 187 688 113 977 -24
93 -84 221 -134 287 -59 76 -287 187 -473 228 -119 27 -271 34 -349 16z"/>
<path d="M11851 11183 c-24 -247 -46 -462 -48 -479 -5 -30 -4 -31 68 -52 139
-41 222 -54 349 -55 167 -2 265 25 363 97 123 91 177 356 102 495 -58 106
-166 175 -425 271 -141 53 -265 109 -316 144 -21 14 -41 26 -44 26 -3 0 -25
-201 -49 -447z"/>
<path d="M10166 8634 c-443 -80 -829 -415 -984 -855 -33 -92 -72 -261 -72
-308 0 -35 -11 -33 268 -56 230 -19 212 -20 212 11 0 108 91 324 186 444 109
136 293 252 454 286 116 25 271 15 382 -23 226 -78 421 -267 506 -491 37 -95
52 -169 61 -287 l6 -90 230 -16 c127 -8 234 -13 239 -11 13 7 0 257 -19 347
-111 534 -509 940 -1024 1045 -119 24 -324 26 -445 4z"/>
<path d="M13246 8434 c-384 -69 -738 -340 -920 -702 -64 -127 -136 -372 -136
-461 0 -34 -16 -31 273 -56 219 -20 207 -20 207 11 0 109 91 325 188 445 111
137 291 251 452 285 116 25 271 15 382 -23 226 -78 421 -267 506 -491 37 -95
52 -169 61 -287 l6 -90 230 -16 c127 -8 234 -13 239 -11 13 7 0 257 -19 347
-111 534 -509 940 -1024 1045 -119 24 -324 26 -445 4z"/>
</g>
</svg>
